#!OML:ASF H:\Pregnant\Project 1\Capture day 1\Session 1\femalepreg.ASF
:FULLY-SPECIFIED
:DEGREES
319
root 2.57997 15.5435 32.3001 170.632 -85.0486 -149.933
lowerback -24.0802 0.741116 0.16545
upperback -6.63847 0.322964 0.686574
thorax 6.08737 -0.0755685 0.718711
lowerneck -20.0711 -0.132809 1.06826
upperneck 27.7093 -2.19164 3.71948
head 12.5948 -0.515335 0.840294
rclavicle -1.88908e-014 -1.60022e-014
rhumerus -42.3354 2.71273 -83.5699
rradius 27.2093
rwrist -7.56637
rhand -19.104 -20.6082
rfingers 7.12502
rthumb 7.20475 -50.4655
lclavicle -1.88908e-014 -1.60022e-014
lhumerus -42.8248 -17.6664 94.461
lradius 33.3034
lwrist 38.9905
lhand -31.991 1.61447
lfingers 7.12502
lthumb -5.24008 31.5297
rfemur -33.7084 19.899 21.4956
rtibia 32.3782
rfoot -15.4085 -16.5635
rtoes 3.86955
lfemur -25.1294 -14.8778 -19.8731
ltibia 14.1933
lfoot -6.34905 13.7343
ltoes -3.90268
320
root 2.57652 15.5432 32.3003 171.073 -85.0205 -150.375
lowerback -24.1094 0.764093 0.159095
upperback -6.65915 0.351869 0.682676
thorax 6.07904 -0.0626789 0.726401
lowerneck -20.1202 -0.115819 1.07881
upperneck 27.8076 -2.18987 3.747
head 12.6451 -0.508837 0.850042
rclavicle 6.47914e-015 8.34896e-015
rhumerus -42.4607 2.64163 -83.4744
rradius 27.152
rwrist -7.59542
rhand -19.1515 -20.6601
rfingers 7.12502
rthumb 7.15892 -50.519
lclavicle 6.47914e-015 8.34896e-015
lhumerus -42.9893 -17.7277 94.5657
lradius 33.2935
lwrist 39.0436
lhand -32.0113 1.65408
lfingers 7.12502
lthumb -5.25961 31.5688
rfemur -33.7134 19.9036 21.4737
rtibia 32.4041
rfoot -15.4151 -16.5371
rtoes 3.82404
lfemur -25.0812 -14.9051 -19.8952
ltibia 14.145
lfoot -6.34189 13.7951
ltoes -3.87035
321
root 2.57309 15.5429 32.3003 171.488 -84.9955 -150.8
lowerback -24.13 0.782875 0.147266
upperback -6.67665 0.377 0.680857
thorax 6.06982 -0.0514327 0.738387
lowerneck -20.164 -0.102579 1.08274
upperneck 27.8927 -2.19316 3.78409
head 12.6894 -0.504112 0.863689
rclavicle -2.49723e-015 -3.97569e-016
rhumerus -42.5752 2.52777 -83.3541
rradius 27.0962
rwrist -7.62118
rhand -19.0793 -20.6817
rfingers 7.12502
rthumb 7.22864 -50.5383
lclavicle -2.49723e-015 -3.97569e-016
lhumerus -43.1513 -17.7867 94.6695
lradius 33.2805
lwrist 39.1181
lhand -32.0357 1.67728
lfingers 7.12502
lthumb -5.28323 31.5914
rfemur -33.7095 19.9116 21.4541
rtibia 32.4323
rfoot -15.424 -16.5188
rtoes 3.78862
lfemur -25.0237 -14.9378 -19.9182
ltibia 14.0964
lfoot -6.33508 13.8581
ltoes -3.83903
322
root 2.5696 15.5426 32.3003 171.863 -84.9736 -151.189
lowerback -24.146 0.796683 0.132185
upperback -6.69256 0.396429 0.682589
thorax 6.06003 -0.0428563 0.754452
lowerneck -20.2073 -0.0919533 1.07123
upperneck 27.9709 -2.19908 3.83609
head 12.7314 -0.500213 0.885258
rclavicle -4.06887e-015 -1.19271e-014
rhumerus -42.6784 2.38713 -83.212
rradius 27.0415
rwrist -7.64105
rhand -18.9548 -20.6939
rfingers 7.12502
rthumb 7.3488 -50.5463
lclavicle -4.06887e-015 -1.19271e-014
lhumerus -43.3096 -17.8281 94.7664
lradius 33.2609
lwrist 39.2058
lhand -32.05 1.67439
lfingers 7.12502
lthumb -5.29698 31.5882
rfemur -33.6996 19.9237 21.4365
rtibia 32.4603
rfoot -15.4331 -16.5099
rtoes 3.76614
lfemur -24.9631 -14.9784 -19.939
ltibia 14.0507
lfoot -6.33119 13.9249
ltoes -3.77721
323
root 2.56606 15.5423 32.3002 172.161 -84.9576 -151.508
lowerback -24.1581 0.805799 0.115988
upperback -6.70579 0.41017 0.687197
thorax 6.05122 -0.0368895 0.772653
lowerneck -20.2484 -0.0811551 1.06523
upperneck 28.0388 -2.20373 3.88201
head 12.7686 -0.495986 0.903745
rclavicle -6.20581e-015 -2.98177e-015
rhumerus -42.7649 2.19703 -83.039
rradius 26.978
rwrist -7.65821
rhand -18.7441 -20.6718
rfingers 7.12502
rthumb 7.55218 -50.5169
lclavicle -6.20581e-015 -2.98177e-015
lhumerus -43.4629 -17.8611 94.8579
lradius 33.2392
lwrist 39.3125
lhand -32.0591 1.66083
lfingers 7.12502
lthumb -5.30583 31.5744
rfemur -33.6812 19.9401 21.4229
rtibia 32.4857
rfoot -15.4466 -16.5097
rtoes 3.77615
lfemur -24.9008 -15.0162 -19.9592
ltibia 14.0111
lfoot -6.32809 13.9832
ltoes -3.72938
324
root 2.56238 15.5419 32.3 172.373 -84.9489 -151.744
lowerback -24.1678 0.808397 0.100055
upperback -6.71658 0.415251 0.697109
thorax 6.04392 -0.0349955 0.793995
lowerneck -20.2856 -0.0661662 1.06723
upperneck 28.092 -2.19829 3.91202
head 12.7985 -0.488584 0.916375
rclavicle -1.08897e-014 -2.08724e-015
rhumerus -42.8328 1.97986 -82.8417
rradius 26.9039
rwrist -7.66699
rhand -18.5554 -20.6556
rfingers 7.12502
rthumb 7.73431 -50.4942
lclavicle -1.08897e-014 -2.08724e-015
lhumerus -43.6124 -17.8816 94.9453
lradius 33.2145
lwrist 39.4291
lhand -32.0617 1.63771
lfingers 7.12502
lthumb -5.30833 31.5512
rfemur -33.6546 19.9621 21.4124
rtibia 32.5075
rfoot -15.4648 -16.5198
rtoes 3.81009
lfemur -24.8385 -15.0492 -19.979
ltibia 13.9788
lfoot -6.32443 14.0292
ltoes -3.69885
325
root 2.55867 15.5416 32.2999 172.487 -84.9477 -151.883
lowerback -24.1767 0.805277 0.0852085
upperback -6.72512 0.412376 0.713293
thorax 6.03878 -0.0368527 0.81927
lowerneck -20.3221 -0.0460211 1.08351
upperneck 28.1336 -2.18008 3.91488
head 12.8226 -0.477565 0.918212
rclavicle 8.07563e-017 1.26228e-014
rhumerus -42.8825 1.74726 -82.628
rradius 26.8201
rwrist -7.6828
rhand -18.3895 -20.6477
rfingers 7.12502
rthumb 7.89444 -50.4803
lclavicle 8.07563e-017 1.26228e-014
lhumerus -43.7535 -17.8878 95.0284
lradius 33.1857
lwrist 39.5444
lhand -32.0597 1.61298
lfingers 7.12502
lthumb -5.30636 31.5265
rfemur -33.6215 19.9825 21.4084
rtibia 32.5245
rfoot -15.4823 -16.5355
rtoes 3.84687
lfemur -24.7814 -15.0742 -19.9972
ltibia 13.9563
lfoot -6.32254 14.0601
ltoes -3.674
326
root 2.55493 15.5414 32.3 172.49 -84.9554 -151.911
lowerback -24.1854 0.798011 0.0761949
upperback -6.73273 0.402534 0.733237
thorax 6.03471 -0.0420128 0.843309
lowerneck -20.3568 -0.0221008 1.11191
upperneck 28.1632 -2.15219 3.89625
head 12.8409 -0.463823 0.911252
rclavicle 3.16813e-015 1.41137e-014
rhumerus -42.9202 1.53103 -82.4204
rradius 26.7347
rwrist -7.74765
rhand -18.276 -20.6534
rfingers 7.12502
rthumb 8.00391 -50.4819
lclavicle 3.16813e-015 1.41137e-014
lhumerus -43.8899 -17.8886 95.1071
lradius 33.1574
lwrist 39.6579
lhand -32.0571 1.60103
lfingers 7.12502
lthumb -5.3039 31.5147
rfemur -33.5839 20.0002 21.4096
rtibia 32.5352
rfoot -15.4984 -16.5559
rtoes 3.87914
lfemur -24.7342 -15.0928 -20.0129
ltibia 13.9478
lfoot -6.32125 14.074
ltoes -3.68903
327
root 2.55115 15.541 32.3002 172.363 -84.9707 -151.808
lowerback -24.1928 0.789101 0.0761542
upperback -6.73989 0.388466 0.753957
thorax 6.03062 -0.0491368 0.861838
lowerneck -20.3872 0.00427917 1.15207
upperneck 28.1809 -2.11978 3.8659
head 12.853 -0.448454 0.898436
rclavicle -1.44119e-014 -8.34896e-015
rhumerus -42.9488 1.31877 -82.2198
rradius 26.6473
rwrist -7.8705
rhand -18.146 -20.6487
rfingers 7.12502
rthumb 8.12943 -50.4723
lclavicle -1.44119e-014 -8.34896e-015
lhumerus -44.0212 -17.8887 95.1784
lradius 33.1282
lwrist 39.759
lhand -32.0581 1.60696
lfingers 7.12502
lthumb -5.30479 31.5206
rfemur -33.5389 20.0138 21.4208
rtibia 32.5384
rfoot -15.5114 -16.5817
rtoes 3.89404
lfemur -24.6968 -15.1015 -20.0245
ltibia 13.9561
lfoot -6.32696 14.0704
ltoes -3.70431
328
root 2.54752 15.5407 32.3008 172.091 -84.9937 -151.557
lowerback -24.2005 0.781647 0.0933536
upperback -6.74875 0.372213 0.772627
thorax 6.02503 -0.0572975 0.867629
lowerneck -20.409 0.033889 1.21498
upperneck 28.1884 -2.0861 3.82415
head 12.8589 -0.431792 0.877444
rclavicle -7.55382e-015 -5.1684e-015
rhumerus -42.9691 1.1199 -82.0318
rradius 26.5575
rwrist -8.02993
rhand -18.0825 -20.6503
rfingers 7.12502
rthumb 8.19068 -50.4715
lclavicle -7.55382e-015 -5.1684e-015
lhumerus -44.1481 -17.8978 95.2435
lradius 33.1006
lwrist 39.8639
lhand -32.0728 1.6325
lfingers 7.12502
lthumb -5.319 31.5457
rfemur -33.4923 20.0109 21.4438
rtibia 32.5331
rfoot -15.5146 -16.6061
rtoes 3.86357
lfemur -24.6778 -15.1202 -20.0237
ltibia 13.9836
lfoot -6.33472 14.0664
ltoes -3.74187
329
root 2.54397 15.5403 32.3016 171.706 -85.0247 -151.191
lowerback -24.2052 0.773934 0.119843
upperback -6.76018 0.353446 0.789673
thorax 6.01528 -0.0666832 0.865579
lowerneck -20.4127 0.0644485 1.30545
upperneck 28.1806 -2.05371 3.765
head 12.8544 -0.415482 0.844635
rclavicle -1.1455e-014 -7.20594e-015
rhumerus -42.984 0.925952 -81.8525
rradius 26.46
rwrist -8.25528
rhand -18.0136 -20.6406
rfingers 7.12502
rthumb 8.25723 -50.4592
lclavicle -1.1455e-014 -7.20594e-015
lhumerus -44.2682 -17.9091 95.2996
lradius 33.0719
lwrist 39.9699
lhand -32.1001 1.67674
lfingers 7.12502
lthumb -5.34539 31.5893
rfemur -33.4409 19.9993 21.4746
rtibia 32.52
rfoot -15.5132 -16.6334
rtoes 3.8159
lfemur -24.6726 -15.1464 -20.0146
ltibia 14.0301
lfoot -6.34886 14.0628
ltoes -3.78607
